<svg width="1440" height="531" viewBox="0 0 1440 531" fill="none" xmlns="http://www.w3.org/2000/svg">
<g opacity="0.1">
<g style="mix-blend-mode:luminosity" opacity="0.4">
<path d="M11 214.796V322.201L104.291 375.908L197.582 322.201V214.796L104.291 161.089L11 214.796Z" fill="url(#paint0_linear_61491:161)"/>
<path d="M11 107.387V214.791L104.291 268.498L197.582 214.791V107.387L104.291 53.6794L11 107.387Z" fill="url(#paint1_linear_61491:161)"/>
<path d="M290.873 53.7072V161.112L197.582 214.819L104.291 161.112V53.7072L197.582 -6.10352e-05L290.873 53.7072Z" fill="url(#paint2_linear_61491:161)"/>
<path d="M197.582 322.2V214.796L290.873 161.089L384.163 214.796V322.2L290.873 375.908L197.582 322.2Z" fill="url(#paint3_linear_61491:161)"/>
<path d="M384.163 107.387V214.791L290.873 268.498L197.582 214.791V107.387L290.873 53.6794L384.163 107.387Z" fill="url(#paint4_linear_61491:161)"/>
<path d="M290.873 375.931V268.526L197.582 214.819L104.291 268.526L104.291 375.931L197.582 429.638L290.873 375.931Z" fill="url(#paint5_linear_61491:161)"/>
</g>
<g style="mix-blend-mode:luminosity" opacity="0.4">
<path d="M384 214.796V322.201L477.291 375.908L570.582 322.201V214.796L477.291 161.089L384 214.796Z" fill="url(#paint6_linear_61491:161)"/>
<path d="M384 107.387V214.791L477.291 268.498L570.582 214.791V107.387L477.291 53.6794L384 107.387Z" fill="url(#paint7_linear_61491:161)"/>
<path d="M663.873 53.7072V161.112L570.582 214.819L477.291 161.112V53.7072L570.582 -6.10352e-05L663.873 53.7072Z" fill="url(#paint8_linear_61491:161)"/>
<path d="M570.582 322.2V214.796L663.873 161.089L757.163 214.796V322.2L663.873 375.908L570.582 322.2Z" fill="url(#paint9_linear_61491:161)"/>
<path d="M757.163 107.387V214.791L663.873 268.498L570.582 214.791V107.387L663.873 53.6794L757.163 107.387Z" fill="url(#paint10_linear_61491:161)"/>
<path d="M663.873 375.931V268.526L570.582 214.819L477.291 268.526V375.931L570.582 429.638L663.873 375.931Z" fill="url(#paint11_linear_61491:161)"/>
</g>
<g style="mix-blend-mode:luminosity" opacity="0.4">
<path d="M757 214.796V322.201L850.291 375.908L943.582 322.201V214.796L850.291 161.089L757 214.796Z" fill="url(#paint12_linear_61491:161)"/>
<path d="M757 107.387V214.791L850.291 268.498L943.582 214.791V107.387L850.291 53.6794L757 107.387Z" fill="url(#paint13_linear_61491:161)"/>
<path d="M1036.87 53.7072V161.112L943.582 214.819L850.291 161.112V53.7072L943.582 -6.10352e-05L1036.87 53.7072Z" fill="url(#paint14_linear_61491:161)"/>
<path d="M943.582 322.2V214.796L1036.87 161.089L1130.16 214.796V322.2L1036.87 375.908L943.582 322.2Z" fill="url(#paint15_linear_61491:161)"/>
<path d="M1130.16 107.387V214.791L1036.87 268.498L943.582 214.791V107.387L1036.87 53.6794L1130.16 107.387Z" fill="url(#paint16_linear_61491:161)"/>
<path d="M1036.87 375.931V268.526L943.582 214.819L850.291 268.526V375.931L943.582 429.638L1036.87 375.931Z" fill="url(#paint17_linear_61491:161)"/>
</g>
<g style="mix-blend-mode:luminosity">
<path d="M1131 214.796V322.201L1224.29 375.908L1317.58 322.201V214.796L1224.29 161.089L1131 214.796Z" fill="url(#paint18_linear_61491:161)"/>
<path d="M1131 107.387V214.791L1224.29 268.498L1317.58 214.791V107.387L1224.29 53.6794L1131 107.387Z" fill="url(#paint19_linear_61491:161)"/>
<path d="M1410.87 53.7072V161.112L1317.58 214.819L1224.29 161.112V53.7072L1317.58 -6.10352e-05L1410.87 53.7072Z" fill="url(#paint20_linear_61491:161)"/>
<path d="M1317.58 322.2V214.796L1410.87 161.089L1504.16 214.796V322.2L1410.87 375.908L1317.58 322.2Z" fill="url(#paint21_linear_61491:161)"/>
<path d="M1504.16 107.387V214.791L1410.87 268.498L1317.58 214.791V107.387L1410.87 53.6794L1504.16 107.387Z" fill="url(#paint22_linear_61491:161)"/>
<path d="M1410.87 375.931V268.526L1317.58 214.819L1224.29 268.526V375.931L1317.58 429.638L1410.87 375.931Z" fill="url(#paint23_linear_61491:161)"/>
</g>
<g style="mix-blend-mode:luminosity" opacity="0.4">
<path d="M1317 536.796V644.201L1410.29 697.908L1503.58 644.201V536.796L1410.29 483.089L1317 536.796Z" fill="url(#paint24_linear_61491:161)"/>
<path d="M1317 429.387V536.791L1410.29 590.498L1503.58 536.791V429.387L1410.29 375.679L1317 429.387Z" fill="url(#paint25_linear_61491:161)"/>
<path d="M1596.87 375.707V483.112L1503.58 536.819L1410.29 483.112V375.707L1503.58 322L1596.87 375.707Z" fill="url(#paint26_linear_61491:161)"/>
</g>
<g style="mix-blend-mode:luminosity" opacity="0.4">
<path d="M944 536.796V644.201L1037.29 697.908L1130.58 644.201V536.796L1037.29 483.089L944 536.796Z" fill="url(#paint27_linear_61491:161)"/>
<path d="M944 429.387V536.791L1037.29 590.498L1130.58 536.791V429.387L1037.29 375.679L944 429.387Z" fill="url(#paint28_linear_61491:161)"/>
<path d="M1223.87 375.707V483.112L1130.58 536.819L1037.29 483.112V375.707L1130.58 322L1223.87 375.707Z" fill="url(#paint29_linear_61491:161)"/>
<path d="M1130.58 644.2V536.796L1223.87 483.089L1317.16 536.796V644.2L1223.87 697.908L1130.58 644.2Z" fill="url(#paint30_linear_61491:161)"/>
<path d="M1317.16 429.387V536.791L1223.87 590.498L1130.58 536.791V429.387L1223.87 375.679L1317.16 429.387Z" fill="url(#paint31_linear_61491:161)"/>
</g>
<g style="mix-blend-mode:luminosity" opacity="0.4">
<path d="M570 536.796V644.201L663.291 697.908L756.582 644.201V536.796L663.291 483.089L570 536.796Z" fill="url(#paint32_linear_61491:161)"/>
<path d="M570 429.387V536.791L663.291 590.498L756.582 536.791V429.387L663.291 375.679L570 429.387Z" fill="url(#paint33_linear_61491:161)"/>
<path d="M849.873 375.707V483.112L756.582 536.819L663.291 483.112V375.707L756.582 322L849.873 375.707Z" fill="url(#paint34_linear_61491:161)"/>
<path d="M756.582 644.2V536.796L849.873 483.089L943.163 536.796V644.2L849.873 697.908L756.582 644.2Z" fill="url(#paint35_linear_61491:161)"/>
<path d="M943.163 429.387V536.791L849.873 590.498L756.582 536.791V429.387L849.873 375.679L943.163 429.387Z" fill="url(#paint36_linear_61491:161)"/>
</g>
<g style="mix-blend-mode:luminosity" opacity="0.4">
<path d="M196 536.796V644.201L289.291 697.908L382.582 644.201V536.796L289.291 483.089L196 536.796Z" fill="url(#paint37_linear_61491:161)"/>
<path d="M196 429.387V536.791L289.291 590.498L382.582 536.791V429.387L289.291 375.679L196 429.387Z" fill="url(#paint38_linear_61491:161)"/>
<path d="M475.873 375.707V483.112L382.582 536.819L289.291 483.112V375.707L382.582 322L475.873 375.707Z" fill="url(#paint39_linear_61491:161)"/>
<path d="M382.582 644.2V536.796L475.873 483.089L569.163 536.796V644.2L475.873 697.908L382.582 644.2Z" fill="url(#paint40_linear_61491:161)"/>
<path d="M569.163 429.387V536.791L475.873 590.498L382.582 536.791V429.387L475.873 375.679L569.163 429.387Z" fill="url(#paint41_linear_61491:161)"/>
</g>
<g style="mix-blend-mode:luminosity" opacity="0.4">
<path d="M-175 536.796V644.201L-81.7091 697.908L11.5817 644.201V536.796L-81.7091 483.089L-175 536.796Z" fill="url(#paint42_linear_61491:161)"/>
<path d="M-175 429.387V536.791L-81.7091 590.498L11.5817 536.791V429.387L-81.7091 375.679L-175 429.387Z" fill="url(#paint43_linear_61491:161)"/>
<path d="M104.873 375.707V483.112L11.5817 536.819L-81.7091 483.112V375.707L11.5817 322L104.873 375.707Z" fill="url(#paint44_linear_61491:161)"/>
<path d="M11.5817 644.2V536.796L104.873 483.089L198.163 536.796V644.2L104.873 697.908L11.5817 644.2Z" fill="url(#paint45_linear_61491:161)"/>
<path d="M198.163 429.387V536.791L104.873 590.498L11.5817 536.791V429.387L104.873 375.679L198.163 429.387Z" fill="url(#paint46_linear_61491:161)"/>
</g>
</g>
<defs>
<linearGradient id="paint0_linear_61491:161" x1="104.291" y1="370.968" x2="11.4017" y2="212.45" gradientUnits="userSpaceOnUse">
<stop stop-color="#8257E5"/>
<stop offset="1" stop-color="#FF008E" stop-opacity="0"/>
</linearGradient>
<linearGradient id="paint1_linear_61491:161" x1="104.291" y1="263.559" x2="11.4017" y2="105.041" gradientUnits="userSpaceOnUse">
<stop stop-color="#8257E5"/>
<stop offset="1" stop-color="#FF008E" stop-opacity="0"/>
</linearGradient>
<linearGradient id="paint2_linear_61491:161" x1="104.291" y1="47.671" x2="290.585" y2="160.089" gradientUnits="userSpaceOnUse">
<stop stop-color="#FF008E" stop-opacity="0"/>
<stop offset="1" stop-color="#FFCD1E"/>
</linearGradient>
<linearGradient id="paint3_linear_61491:161" x1="384.163" y1="328.237" x2="197.87" y2="215.819" gradientUnits="userSpaceOnUse">
<stop stop-color="#FF008E" stop-opacity="0"/>
<stop offset="1" stop-color="#FFCD1E"/>
</linearGradient>
<linearGradient id="paint4_linear_61491:161" x1="290.873" y1="263.559" x2="383.762" y2="105.041" gradientUnits="userSpaceOnUse">
<stop stop-color="#8257E5"/>
<stop offset="1" stop-color="#FF008E" stop-opacity="0"/>
</linearGradient>
<linearGradient id="paint5_linear_61491:161" x1="197.582" y1="219.759" x2="290.471" y2="378.277" gradientUnits="userSpaceOnUse">
<stop stop-color="#8257E5"/>
<stop offset="1" stop-color="#FF008E" stop-opacity="0"/>
</linearGradient>
<linearGradient id="paint6_linear_61491:161" x1="477.291" y1="370.968" x2="384.402" y2="212.45" gradientUnits="userSpaceOnUse">
<stop stop-color="#8257E5"/>
<stop offset="1" stop-color="#FF008E" stop-opacity="0"/>
</linearGradient>
<linearGradient id="paint7_linear_61491:161" x1="477.291" y1="263.559" x2="384.402" y2="105.041" gradientUnits="userSpaceOnUse">
<stop stop-color="#8257E5"/>
<stop offset="1" stop-color="#FF008E" stop-opacity="0"/>
</linearGradient>
<linearGradient id="paint8_linear_61491:161" x1="477.291" y1="47.671" x2="663.585" y2="160.089" gradientUnits="userSpaceOnUse">
<stop stop-color="#FF008E" stop-opacity="0"/>
<stop offset="1" stop-color="#FFCD1E"/>
</linearGradient>
<linearGradient id="paint9_linear_61491:161" x1="757.163" y1="328.237" x2="570.87" y2="215.819" gradientUnits="userSpaceOnUse">
<stop stop-color="#FF008E" stop-opacity="0"/>
<stop offset="1" stop-color="#FFCD1E"/>
</linearGradient>
<linearGradient id="paint10_linear_61491:161" x1="663.873" y1="263.559" x2="756.762" y2="105.041" gradientUnits="userSpaceOnUse">
<stop stop-color="#8257E5"/>
<stop offset="1" stop-color="#FF008E" stop-opacity="0"/>
</linearGradient>
<linearGradient id="paint11_linear_61491:161" x1="570.582" y1="219.759" x2="663.471" y2="378.277" gradientUnits="userSpaceOnUse">
<stop stop-color="#8257E5"/>
<stop offset="1" stop-color="#FF008E" stop-opacity="0"/>
</linearGradient>
<linearGradient id="paint12_linear_61491:161" x1="850.291" y1="370.968" x2="757.402" y2="212.45" gradientUnits="userSpaceOnUse">
<stop stop-color="#8257E5"/>
<stop offset="1" stop-color="#FF008E" stop-opacity="0"/>
</linearGradient>
<linearGradient id="paint13_linear_61491:161" x1="850.291" y1="263.559" x2="757.402" y2="105.041" gradientUnits="userSpaceOnUse">
<stop stop-color="#8257E5"/>
<stop offset="1" stop-color="#FF008E" stop-opacity="0"/>
</linearGradient>
<linearGradient id="paint14_linear_61491:161" x1="850.291" y1="47.671" x2="1036.58" y2="160.089" gradientUnits="userSpaceOnUse">
<stop stop-color="#FF008E" stop-opacity="0"/>
<stop offset="1" stop-color="#FFCD1E"/>
</linearGradient>
<linearGradient id="paint15_linear_61491:161" x1="1130.16" y1="328.237" x2="943.87" y2="215.819" gradientUnits="userSpaceOnUse">
<stop stop-color="#FF008E" stop-opacity="0"/>
<stop offset="1" stop-color="#FFCD1E"/>
</linearGradient>
<linearGradient id="paint16_linear_61491:161" x1="1036.87" y1="263.559" x2="1129.76" y2="105.041" gradientUnits="userSpaceOnUse">
<stop stop-color="#8257E5"/>
<stop offset="1" stop-color="#FF008E" stop-opacity="0"/>
</linearGradient>
<linearGradient id="paint17_linear_61491:161" x1="943.582" y1="219.759" x2="1036.47" y2="378.277" gradientUnits="userSpaceOnUse">
<stop stop-color="#8257E5"/>
<stop offset="1" stop-color="#FF008E" stop-opacity="0"/>
</linearGradient>
<linearGradient id="paint18_linear_61491:161" x1="1224.29" y1="370.968" x2="1131.4" y2="212.45" gradientUnits="userSpaceOnUse">
<stop stop-color="#8257E5"/>
<stop offset="1" stop-color="#FF008E" stop-opacity="0"/>
</linearGradient>
<linearGradient id="paint19_linear_61491:161" x1="1224.29" y1="263.559" x2="1131.4" y2="105.041" gradientUnits="userSpaceOnUse">
<stop stop-color="#8257E5"/>
<stop offset="1" stop-color="#FF008E" stop-opacity="0"/>
</linearGradient>
<linearGradient id="paint20_linear_61491:161" x1="1224.29" y1="47.671" x2="1410.58" y2="160.089" gradientUnits="userSpaceOnUse">
<stop stop-color="#FF008E" stop-opacity="0"/>
<stop offset="1" stop-color="#FFCD1E"/>
</linearGradient>
<linearGradient id="paint21_linear_61491:161" x1="1504.16" y1="328.237" x2="1317.87" y2="215.819" gradientUnits="userSpaceOnUse">
<stop stop-color="#FF008E" stop-opacity="0"/>
<stop offset="1" stop-color="#FFCD1E"/>
</linearGradient>
<linearGradient id="paint22_linear_61491:161" x1="1410.87" y1="263.559" x2="1503.76" y2="105.041" gradientUnits="userSpaceOnUse">
<stop stop-color="#8257E5"/>
<stop offset="1" stop-color="#FF008E" stop-opacity="0"/>
</linearGradient>
<linearGradient id="paint23_linear_61491:161" x1="1317.58" y1="219.759" x2="1410.47" y2="378.277" gradientUnits="userSpaceOnUse">
<stop stop-color="#8257E5"/>
<stop offset="1" stop-color="#FF008E" stop-opacity="0"/>
</linearGradient>
<linearGradient id="paint24_linear_61491:161" x1="1410.29" y1="692.968" x2="1317.4" y2="534.45" gradientUnits="userSpaceOnUse">
<stop stop-color="#8257E5"/>
<stop offset="1" stop-color="#FF008E" stop-opacity="0"/>
</linearGradient>
<linearGradient id="paint25_linear_61491:161" x1="1410.29" y1="585.559" x2="1317.4" y2="427.041" gradientUnits="userSpaceOnUse">
<stop stop-color="#8257E5"/>
<stop offset="1" stop-color="#FF008E" stop-opacity="0"/>
</linearGradient>
<linearGradient id="paint26_linear_61491:161" x1="1410.29" y1="369.671" x2="1596.58" y2="482.089" gradientUnits="userSpaceOnUse">
<stop stop-color="#FF008E" stop-opacity="0"/>
<stop offset="1" stop-color="#FFCD1E"/>
</linearGradient>
<linearGradient id="paint27_linear_61491:161" x1="1037.29" y1="692.968" x2="944.402" y2="534.45" gradientUnits="userSpaceOnUse">
<stop stop-color="#8257E5"/>
<stop offset="1" stop-color="#FF008E" stop-opacity="0"/>
</linearGradient>
<linearGradient id="paint28_linear_61491:161" x1="1037.29" y1="585.559" x2="944.402" y2="427.041" gradientUnits="userSpaceOnUse">
<stop stop-color="#8257E5"/>
<stop offset="1" stop-color="#FF008E" stop-opacity="0"/>
</linearGradient>
<linearGradient id="paint29_linear_61491:161" x1="1037.29" y1="369.671" x2="1223.58" y2="482.089" gradientUnits="userSpaceOnUse">
<stop stop-color="#FF008E" stop-opacity="0"/>
<stop offset="1" stop-color="#FFCD1E"/>
</linearGradient>
<linearGradient id="paint30_linear_61491:161" x1="1317.16" y1="650.237" x2="1130.87" y2="537.819" gradientUnits="userSpaceOnUse">
<stop stop-color="#FF008E" stop-opacity="0"/>
<stop offset="1" stop-color="#FFCD1E"/>
</linearGradient>
<linearGradient id="paint31_linear_61491:161" x1="1223.87" y1="585.559" x2="1316.76" y2="427.041" gradientUnits="userSpaceOnUse">
<stop stop-color="#8257E5"/>
<stop offset="1" stop-color="#FF008E" stop-opacity="0"/>
</linearGradient>
<linearGradient id="paint32_linear_61491:161" x1="663.291" y1="692.968" x2="570.402" y2="534.45" gradientUnits="userSpaceOnUse">
<stop stop-color="#8257E5"/>
<stop offset="1" stop-color="#FF008E" stop-opacity="0"/>
</linearGradient>
<linearGradient id="paint33_linear_61491:161" x1="663.291" y1="585.559" x2="570.402" y2="427.041" gradientUnits="userSpaceOnUse">
<stop stop-color="#8257E5"/>
<stop offset="1" stop-color="#FF008E" stop-opacity="0"/>
</linearGradient>
<linearGradient id="paint34_linear_61491:161" x1="663.291" y1="369.671" x2="849.585" y2="482.089" gradientUnits="userSpaceOnUse">
<stop stop-color="#FF008E" stop-opacity="0"/>
<stop offset="1" stop-color="#FFCD1E"/>
</linearGradient>
<linearGradient id="paint35_linear_61491:161" x1="943.163" y1="650.237" x2="756.87" y2="537.819" gradientUnits="userSpaceOnUse">
<stop stop-color="#FF008E" stop-opacity="0"/>
<stop offset="1" stop-color="#FFCD1E"/>
</linearGradient>
<linearGradient id="paint36_linear_61491:161" x1="849.873" y1="585.559" x2="942.762" y2="427.041" gradientUnits="userSpaceOnUse">
<stop stop-color="#8257E5"/>
<stop offset="1" stop-color="#FF008E" stop-opacity="0"/>
</linearGradient>
<linearGradient id="paint37_linear_61491:161" x1="289.291" y1="692.968" x2="196.402" y2="534.45" gradientUnits="userSpaceOnUse">
<stop stop-color="#8257E5"/>
<stop offset="1" stop-color="#FF008E" stop-opacity="0"/>
</linearGradient>
<linearGradient id="paint38_linear_61491:161" x1="289.291" y1="585.559" x2="196.402" y2="427.041" gradientUnits="userSpaceOnUse">
<stop stop-color="#8257E5"/>
<stop offset="1" stop-color="#FF008E" stop-opacity="0"/>
</linearGradient>
<linearGradient id="paint39_linear_61491:161" x1="289.291" y1="369.671" x2="475.585" y2="482.089" gradientUnits="userSpaceOnUse">
<stop stop-color="#FF008E" stop-opacity="0"/>
<stop offset="1" stop-color="#FFCD1E"/>
</linearGradient>
<linearGradient id="paint40_linear_61491:161" x1="569.163" y1="650.237" x2="382.87" y2="537.819" gradientUnits="userSpaceOnUse">
<stop stop-color="#FF008E" stop-opacity="0"/>
<stop offset="1" stop-color="#FFCD1E"/>
</linearGradient>
<linearGradient id="paint41_linear_61491:161" x1="475.873" y1="585.559" x2="568.762" y2="427.041" gradientUnits="userSpaceOnUse">
<stop stop-color="#8257E5"/>
<stop offset="1" stop-color="#FF008E" stop-opacity="0"/>
</linearGradient>
<linearGradient id="paint42_linear_61491:161" x1="-81.7091" y1="692.968" x2="-174.598" y2="534.45" gradientUnits="userSpaceOnUse">
<stop stop-color="#8257E5"/>
<stop offset="1" stop-color="#FF008E" stop-opacity="0"/>
</linearGradient>
<linearGradient id="paint43_linear_61491:161" x1="-81.7091" y1="585.559" x2="-174.598" y2="427.041" gradientUnits="userSpaceOnUse">
<stop stop-color="#8257E5"/>
<stop offset="1" stop-color="#FF008E" stop-opacity="0"/>
</linearGradient>
<linearGradient id="paint44_linear_61491:161" x1="-81.7091" y1="369.671" x2="104.585" y2="482.089" gradientUnits="userSpaceOnUse">
<stop stop-color="#FF008E" stop-opacity="0"/>
<stop offset="1" stop-color="#FFCD1E"/>
</linearGradient>
<linearGradient id="paint45_linear_61491:161" x1="198.163" y1="650.237" x2="11.8698" y2="537.819" gradientUnits="userSpaceOnUse">
<stop stop-color="#FF008E" stop-opacity="0"/>
<stop offset="1" stop-color="#FFCD1E"/>
</linearGradient>
<linearGradient id="paint46_linear_61491:161" x1="104.873" y1="585.559" x2="197.762" y2="427.041" gradientUnits="userSpaceOnUse">
<stop stop-color="#8257E5"/>
<stop offset="1" stop-color="#FF008E" stop-opacity="0"/>
</linearGradient>
</defs>
</svg>
