<svg width="704" height="608" viewBox="0 0 704 608" fill="none" xmlns="http://www.w3.org/2000/svg">
<g style="mix-blend-mode:luminosity" opacity="0.4">
<path d="M117 270.01V337.519L175.638 371.276L234.276 337.519V270.01L175.638 236.252L117 270.01Z" fill="url(#paint0_linear_61552:38)"/>
<path d="M117 202.498V270.007L175.638 303.764L234.276 270.007V202.498L175.638 168.74L117 202.498Z" fill="url(#paint1_linear_61552:38)"/>
<path d="M292.913 168.758V236.266L234.276 270.024L175.638 236.266V168.758L234.276 135L292.913 168.758Z" fill="url(#paint2_linear_61552:38)"/>
<path d="M234.276 337.519V270.01L292.913 236.252L351.551 270.01V337.519L292.913 371.276L234.276 337.519Z" fill="url(#paint3_linear_61552:38)"/>
<path d="M351.551 202.498V270.007L292.913 303.764L234.276 270.007V202.498L292.913 168.74L351.551 202.498Z" fill="url(#paint4_linear_61552:38)"/>
<path d="M292.913 371.291V303.782L234.276 270.024L175.638 303.782V371.291L234.276 405.048L292.913 371.291Z" fill="url(#paint5_linear_61552:38)"/>
</g>
<g style="mix-blend-mode:luminosity" opacity="0.4">
<path d="M234 135.01V202.519L292.638 236.276L351.276 202.519V135.01L292.638 101.252L234 135.01Z" fill="url(#paint6_linear_61552:38)"/>
<path d="M234 67.4977V135.007L292.638 168.764L351.276 135.007V67.4977L292.638 33.7401L234 67.4977Z" fill="url(#paint7_linear_61552:38)"/>
<path d="M409.913 33.7576V101.266L351.276 135.024L292.638 101.266V33.7576L351.276 -6.10352e-05L409.913 33.7576Z" fill="url(#paint8_linear_61552:38)"/>
<path d="M351.276 202.519V135.01L409.913 101.252L468.551 135.01V202.519L409.913 236.276L351.276 202.519Z" fill="url(#paint9_linear_61552:38)"/>
<path d="M468.551 67.4977V135.007L409.913 168.764L351.276 135.007V67.4977L409.913 33.7401L468.551 67.4977Z" fill="url(#paint10_linear_61552:38)"/>
<path d="M409.913 236.291V168.782L351.276 135.024L292.638 168.782V236.291L351.276 270.048L409.913 236.291Z" fill="url(#paint11_linear_61552:38)"/>
</g>
<g style="mix-blend-mode:luminosity" opacity="0.4">
<path d="M351.449 270.01V337.519L410.086 371.276L468.724 337.519V270.01L410.086 236.252L351.449 270.01Z" fill="url(#paint12_linear_61552:38)"/>
<path d="M351.449 202.498V270.007L410.086 303.764L468.724 270.007V202.498L410.086 168.74L351.449 202.498Z" fill="url(#paint13_linear_61552:38)"/>
<path d="M527.362 168.758V236.266L468.724 270.024L410.086 236.266V168.758L468.724 135L527.362 168.758Z" fill="url(#paint14_linear_61552:38)"/>
<path d="M468.724 337.519V270.01L527.362 236.252L586 270.01V337.519L527.362 371.276L468.724 337.519Z" fill="url(#paint15_linear_61552:38)"/>
<path d="M586 202.498V270.007L527.362 303.764L468.724 270.007V202.498L527.362 168.74L586 202.498Z" fill="url(#paint16_linear_61552:38)"/>
<path d="M527.362 371.291V303.782L468.724 270.024L410.086 303.782V371.291L468.724 405.048L527.362 371.291Z" fill="url(#paint17_linear_61552:38)"/>
</g>
<g style="mix-blend-mode:luminosity" opacity="0.4">
<path d="M235.167 472.403V539.911L293.805 573.669L352.443 539.911V472.403L293.805 438.645L235.167 472.403Z" fill="url(#paint18_linear_61552:38)"/>
<path d="M235.167 404.89V472.399L293.805 506.157L352.443 472.399V404.89L293.805 371.133L235.167 404.89Z" fill="url(#paint19_linear_61552:38)"/>
<path d="M411.081 371.15V438.659L352.443 472.417L293.805 438.659V371.15L352.443 337.393L411.081 371.15Z" fill="url(#paint20_linear_61552:38)"/>
<path d="M352.443 539.911V472.402L411.081 438.645L469.718 472.402V539.911L411.081 573.669L352.443 539.911Z" fill="url(#paint21_linear_61552:38)"/>
<path d="M469.719 404.89V472.399L411.081 506.157L352.443 472.399V404.89L411.081 371.133L469.719 404.89Z" fill="url(#paint22_linear_61552:38)"/>
<path d="M411.081 573.683V506.174L352.443 472.417L293.805 506.174V573.683L352.443 607.441L411.081 573.683Z" fill="url(#paint23_linear_61552:38)"/>
</g>
<g style="mix-blend-mode:luminosity" opacity="0.4">
<path d="M9.91821e-05 472.01V539.519L58.6379 573.276L117.276 539.519V472.01L58.6379 438.252L9.91821e-05 472.01Z" fill="url(#paint24_linear_61552:38)"/>
<path d="M9.91821e-05 404.498V472.007L58.6379 505.764L117.276 472.007V404.498L58.6379 370.74L9.91821e-05 404.498Z" fill="url(#paint25_linear_61552:38)"/>
<path d="M175.914 370.758V438.266L117.276 472.024L58.6379 438.266V370.758L117.276 337L175.914 370.758Z" fill="url(#paint26_linear_61552:38)"/>
<path d="M117 540.266V472.758L175.638 439L234.276 472.758V540.266L175.638 574.024L117 540.266Z" fill="url(#paint27_linear_61552:38)"/>
<path d="M175.914 573.291V505.782L117.276 472.024L58.6379 505.782L58.6379 573.291L117.276 607.048L175.914 573.291Z" fill="url(#paint28_linear_61552:38)"/>
</g>
<g style="mix-blend-mode:luminosity" opacity="0.4">
<path d="M469 405.01V472.519L527.638 506.276L586.276 472.519V405.01L527.638 371.252L469 405.01Z" fill="url(#paint29_linear_61552:38)"/>
<path d="M469 337.498V405.007L527.638 438.764L586.276 405.007V337.498L527.638 303.74L469 337.498Z" fill="url(#paint30_linear_61552:38)"/>
<path d="M644.913 303.758V371.266L586.276 405.024L527.638 371.266V303.758L586.276 270L644.913 303.758Z" fill="url(#paint31_linear_61552:38)"/>
<path d="M586.276 472.519V405.01L644.913 371.252L703.551 405.01V472.519L644.913 506.276L586.276 472.519Z" fill="url(#paint32_linear_61552:38)"/>
<path d="M703.551 337.498V405.007L644.913 438.764L586.276 405.007V337.498L644.913 303.74L703.551 337.498Z" fill="url(#paint33_linear_61552:38)"/>
<path d="M644.913 506.291V438.782L586.276 405.024L527.638 438.782V506.291L586.276 540.048L644.913 506.291Z" fill="url(#paint34_linear_61552:38)"/>
</g>
<defs>
<linearGradient id="paint0_linear_61552:38" x1="175.638" y1="368.172" x2="117.252" y2="268.535" gradientUnits="userSpaceOnUse">
<stop stop-color="#1B17EF"/>
<stop offset="1" stop-color="#8F0050" stop-opacity="0"/>
</linearGradient>
<linearGradient id="paint1_linear_61552:38" x1="175.638" y1="300.659" x2="117.252" y2="201.023" gradientUnits="userSpaceOnUse">
<stop stop-color="#1B17EF"/>
<stop offset="1" stop-color="#8F0050" stop-opacity="0"/>
</linearGradient>
<linearGradient id="paint2_linear_61552:38" x1="175.638" y1="164.964" x2="292.732" y2="235.624" gradientUnits="userSpaceOnUse">
<stop stop-color="#FF008E" stop-opacity="0"/>
<stop offset="1" stop-color="#FFCD1E"/>
</linearGradient>
<linearGradient id="paint3_linear_61552:38" x1="351.551" y1="341.313" x2="234.457" y2="270.652" gradientUnits="userSpaceOnUse">
<stop stop-color="#FF008E" stop-opacity="0"/>
<stop offset="1" stop-color="#FFCD1E"/>
</linearGradient>
<linearGradient id="paint4_linear_61552:38" x1="292.913" y1="300.659" x2="351.299" y2="201.023" gradientUnits="userSpaceOnUse">
<stop stop-color="#1B17EF"/>
<stop offset="1" stop-color="#8F0050" stop-opacity="0"/>
</linearGradient>
<linearGradient id="paint5_linear_61552:38" x1="234.276" y1="273.129" x2="292.661" y2="372.765" gradientUnits="userSpaceOnUse">
<stop stop-color="#1B17EF"/>
<stop offset="1" stop-color="#8F0050" stop-opacity="0"/>
</linearGradient>
<linearGradient id="paint6_linear_61552:38" x1="292.638" y1="233.172" x2="234.252" y2="133.535" gradientUnits="userSpaceOnUse">
<stop stop-color="#1B17EF"/>
<stop offset="1" stop-color="#8F0050" stop-opacity="0"/>
</linearGradient>
<linearGradient id="paint7_linear_61552:38" x1="292.638" y1="165.659" x2="234.252" y2="66.0231" gradientUnits="userSpaceOnUse">
<stop stop-color="#1B17EF"/>
<stop offset="1" stop-color="#8F0050" stop-opacity="0"/>
</linearGradient>
<linearGradient id="paint8_linear_61552:38" x1="292.638" y1="29.9635" x2="409.732" y2="100.624" gradientUnits="userSpaceOnUse">
<stop stop-color="#FF008E" stop-opacity="0"/>
<stop offset="1" stop-color="#FFCD1E"/>
</linearGradient>
<linearGradient id="paint9_linear_61552:38" x1="468.551" y1="206.313" x2="351.457" y2="135.652" gradientUnits="userSpaceOnUse">
<stop stop-color="#FF008E" stop-opacity="0"/>
<stop offset="1" stop-color="#FFCD1E"/>
</linearGradient>
<linearGradient id="paint10_linear_61552:38" x1="409.913" y1="165.659" x2="468.299" y2="66.0231" gradientUnits="userSpaceOnUse">
<stop stop-color="#1B17EF"/>
<stop offset="1" stop-color="#8F0050" stop-opacity="0"/>
</linearGradient>
<linearGradient id="paint11_linear_61552:38" x1="351.276" y1="138.129" x2="409.661" y2="237.765" gradientUnits="userSpaceOnUse">
<stop stop-color="#1B17EF"/>
<stop offset="1" stop-color="#8F0050" stop-opacity="0"/>
</linearGradient>
<linearGradient id="paint12_linear_61552:38" x1="410.086" y1="368.172" x2="351.701" y2="268.535" gradientUnits="userSpaceOnUse">
<stop stop-color="#1B17EF"/>
<stop offset="1" stop-color="#8F0050" stop-opacity="0"/>
</linearGradient>
<linearGradient id="paint13_linear_61552:38" x1="410.086" y1="300.659" x2="351.701" y2="201.023" gradientUnits="userSpaceOnUse">
<stop stop-color="#1B17EF"/>
<stop offset="1" stop-color="#8F0050" stop-opacity="0"/>
</linearGradient>
<linearGradient id="paint14_linear_61552:38" x1="410.086" y1="164.964" x2="527.181" y2="235.624" gradientUnits="userSpaceOnUse">
<stop stop-color="#FF008E" stop-opacity="0"/>
<stop offset="1" stop-color="#FFCD1E"/>
</linearGradient>
<linearGradient id="paint15_linear_61552:38" x1="586" y1="341.313" x2="468.905" y2="270.652" gradientUnits="userSpaceOnUse">
<stop stop-color="#FF008E" stop-opacity="0"/>
<stop offset="1" stop-color="#FFCD1E"/>
</linearGradient>
<linearGradient id="paint16_linear_61552:38" x1="527.362" y1="300.659" x2="585.747" y2="201.023" gradientUnits="userSpaceOnUse">
<stop stop-color="#1B17EF"/>
<stop offset="1" stop-color="#8F0050" stop-opacity="0"/>
</linearGradient>
<linearGradient id="paint17_linear_61552:38" x1="468.724" y1="273.129" x2="527.11" y2="372.765" gradientUnits="userSpaceOnUse">
<stop stop-color="#1B17EF"/>
<stop offset="1" stop-color="#8F0050" stop-opacity="0"/>
</linearGradient>
<linearGradient id="paint18_linear_61552:38" x1="293.805" y1="570.564" x2="235.42" y2="470.928" gradientUnits="userSpaceOnUse">
<stop stop-color="#1B17EF"/>
<stop offset="1" stop-color="#8F0050" stop-opacity="0"/>
</linearGradient>
<linearGradient id="paint19_linear_61552:38" x1="293.805" y1="503.052" x2="235.42" y2="403.416" gradientUnits="userSpaceOnUse">
<stop stop-color="#1B17EF"/>
<stop offset="1" stop-color="#8F0050" stop-opacity="0"/>
</linearGradient>
<linearGradient id="paint20_linear_61552:38" x1="293.805" y1="367.356" x2="410.9" y2="438.016" gradientUnits="userSpaceOnUse">
<stop stop-color="#FF008E" stop-opacity="0"/>
<stop offset="1" stop-color="#FFCD1E"/>
</linearGradient>
<linearGradient id="paint21_linear_61552:38" x1="469.718" y1="543.705" x2="352.624" y2="473.045" gradientUnits="userSpaceOnUse">
<stop stop-color="#FF008E" stop-opacity="0"/>
<stop offset="1" stop-color="#FFCD1E"/>
</linearGradient>
<linearGradient id="paint22_linear_61552:38" x1="411.081" y1="503.052" x2="469.466" y2="403.416" gradientUnits="userSpaceOnUse">
<stop stop-color="#1B17EF"/>
<stop offset="1" stop-color="#8F0050" stop-opacity="0"/>
</linearGradient>
<linearGradient id="paint23_linear_61552:38" x1="352.443" y1="475.521" x2="410.828" y2="575.158" gradientUnits="userSpaceOnUse">
<stop stop-color="#1B17EF"/>
<stop offset="1" stop-color="#8F0050" stop-opacity="0"/>
</linearGradient>
<linearGradient id="paint24_linear_61552:38" x1="58.6379" y1="570.172" x2="0.252581" y2="470.535" gradientUnits="userSpaceOnUse">
<stop stop-color="#1B17EF"/>
<stop offset="1" stop-color="#8F0050" stop-opacity="0"/>
</linearGradient>
<linearGradient id="paint25_linear_61552:38" x1="58.6379" y1="502.66" x2="0.252561" y2="403.023" gradientUnits="userSpaceOnUse">
<stop stop-color="#1B17EF"/>
<stop offset="1" stop-color="#8F0050" stop-opacity="0"/>
</linearGradient>
<linearGradient id="paint26_linear_61552:38" x1="58.638" y1="366.964" x2="175.733" y2="437.624" gradientUnits="userSpaceOnUse">
<stop stop-color="#FF008E" stop-opacity="0"/>
<stop offset="1" stop-color="#FFCD1E"/>
</linearGradient>
<linearGradient id="paint27_linear_61552:38" x1="234.276" y1="544.06" x2="117.181" y2="473.4" gradientUnits="userSpaceOnUse">
<stop stop-color="#FF008E" stop-opacity="0"/>
<stop offset="1" stop-color="#FFCD1E"/>
</linearGradient>
<linearGradient id="paint28_linear_61552:38" x1="117.276" y1="475.129" x2="175.661" y2="574.765" gradientUnits="userSpaceOnUse">
<stop stop-color="#1B17EF"/>
<stop offset="1" stop-color="#8F0050" stop-opacity="0"/>
</linearGradient>
<linearGradient id="paint29_linear_61552:38" x1="527.638" y1="503.172" x2="469.252" y2="403.535" gradientUnits="userSpaceOnUse">
<stop stop-color="#1B17EF"/>
<stop offset="1" stop-color="#8F0050" stop-opacity="0"/>
</linearGradient>
<linearGradient id="paint30_linear_61552:38" x1="527.638" y1="435.66" x2="469.252" y2="336.023" gradientUnits="userSpaceOnUse">
<stop stop-color="#1B17EF"/>
<stop offset="1" stop-color="#8F0050" stop-opacity="0"/>
</linearGradient>
<linearGradient id="paint31_linear_61552:38" x1="527.638" y1="299.964" x2="644.732" y2="370.624" gradientUnits="userSpaceOnUse">
<stop stop-color="#FF008E" stop-opacity="0"/>
<stop offset="1" stop-color="#FFCD1E"/>
</linearGradient>
<linearGradient id="paint32_linear_61552:38" x1="703.551" y1="476.313" x2="586.457" y2="405.653" gradientUnits="userSpaceOnUse">
<stop stop-color="#FF008E" stop-opacity="0"/>
<stop offset="1" stop-color="#FFCD1E"/>
</linearGradient>
<linearGradient id="paint33_linear_61552:38" x1="644.913" y1="435.66" x2="703.299" y2="336.023" gradientUnits="userSpaceOnUse">
<stop stop-color="#1B17EF"/>
<stop offset="1" stop-color="#8F0050" stop-opacity="0"/>
</linearGradient>
<linearGradient id="paint34_linear_61552:38" x1="586.276" y1="408.129" x2="644.661" y2="507.765" gradientUnits="userSpaceOnUse">
<stop stop-color="#1B17EF"/>
<stop offset="1" stop-color="#8F0050" stop-opacity="0"/>
</linearGradient>
</defs>
</svg>
