<svg width="1440" height="407" viewBox="0 0 1440 407" fill="none" xmlns="http://www.w3.org/2000/svg">
<g opacity="0.24">
<g style="mix-blend-mode:luminosity" opacity="0.4">
<path d="M-12 214.796V322.201L81.2909 375.908L174.582 322.201V214.796L81.2909 161.089L-12 214.796Z" fill="url(#paint0_linear_61491:161)"/>
<path d="M-12 107.387V214.791L81.2909 268.498L174.582 214.791V107.387L81.2909 53.6794L-12 107.387Z" fill="url(#paint1_linear_61491:161)"/>
<path d="M267.873 53.7072V161.112L174.582 214.819L81.2909 161.112V53.7072L174.582 -6.10352e-05L267.873 53.7072Z" fill="url(#paint2_linear_61491:161)"/>
<path d="M174.582 322.2V214.796L267.873 161.089L361.163 214.796V322.2L267.873 375.908L174.582 322.2Z" fill="url(#paint3_linear_61491:161)"/>
<path d="M361.163 107.387V214.791L267.873 268.498L174.582 214.791V107.387L267.873 53.6794L361.163 107.387Z" fill="url(#paint4_linear_61491:161)"/>
<path d="M267.873 375.931V268.526L174.582 214.819L81.2909 268.526L81.2909 375.931L174.582 429.638L267.873 375.931Z" fill="url(#paint5_linear_61491:161)"/>
</g>
<g style="mix-blend-mode:luminosity" opacity="0.4">
<path d="M361 214.796V322.201L454.291 375.908L547.582 322.201V214.796L454.291 161.089L361 214.796Z" fill="url(#paint6_linear_61491:161)"/>
<path d="M361 107.387V214.791L454.291 268.498L547.582 214.791V107.387L454.291 53.6794L361 107.387Z" fill="url(#paint7_linear_61491:161)"/>
<path d="M640.873 53.7072V161.112L547.582 214.819L454.291 161.112V53.7072L547.582 -6.10352e-05L640.873 53.7072Z" fill="url(#paint8_linear_61491:161)"/>
<path d="M547.582 322.2V214.796L640.873 161.089L734.163 214.796V322.2L640.873 375.908L547.582 322.2Z" fill="url(#paint9_linear_61491:161)"/>
<path d="M734.163 107.387V214.791L640.873 268.498L547.582 214.791V107.387L640.873 53.6794L734.163 107.387Z" fill="url(#paint10_linear_61491:161)"/>
<path d="M640.873 375.931V268.526L547.582 214.819L454.291 268.526V375.931L547.582 429.638L640.873 375.931Z" fill="url(#paint11_linear_61491:161)"/>
</g>
<g style="mix-blend-mode:luminosity" opacity="0.4">
<path d="M734 214.796V322.201L827.291 375.908L920.582 322.201V214.796L827.291 161.089L734 214.796Z" fill="url(#paint12_linear_61491:161)"/>
<path d="M734 107.387V214.791L827.291 268.498L920.582 214.791V107.387L827.291 53.6794L734 107.387Z" fill="url(#paint13_linear_61491:161)"/>
<path d="M1013.87 53.7072V161.112L920.582 214.819L827.291 161.112V53.7072L920.582 -6.10352e-05L1013.87 53.7072Z" fill="url(#paint14_linear_61491:161)"/>
<path d="M920.582 322.2V214.796L1013.87 161.089L1107.16 214.796V322.2L1013.87 375.908L920.582 322.2Z" fill="url(#paint15_linear_61491:161)"/>
<path d="M1107.16 107.387V214.791L1013.87 268.498L920.582 214.791V107.387L1013.87 53.6794L1107.16 107.387Z" fill="url(#paint16_linear_61491:161)"/>
<path d="M1013.87 375.931V268.526L920.582 214.819L827.291 268.526V375.931L920.582 429.638L1013.87 375.931Z" fill="url(#paint17_linear_61491:161)"/>
</g>
<g style="mix-blend-mode:luminosity" opacity="0.4">
<path d="M1107 214.796V322.201L1200.29 375.908L1293.58 322.201V214.796L1200.29 161.089L1107 214.796Z" fill="url(#paint18_linear_61491:161)"/>
<path d="M1107 107.387V214.791L1200.29 268.498L1293.58 214.791V107.387L1200.29 53.6794L1107 107.387Z" fill="url(#paint19_linear_61491:161)"/>
<path d="M1386.87 53.7072V161.112L1293.58 214.819L1200.29 161.112V53.7072L1293.58 -6.10352e-05L1386.87 53.7072Z" fill="url(#paint20_linear_61491:161)"/>
<path d="M1293.58 322.2V214.796L1386.87 161.089L1480.16 214.796V322.2L1386.87 375.908L1293.58 322.2Z" fill="url(#paint21_linear_61491:161)"/>
<path d="M1480.16 107.387V214.791L1386.87 268.498L1293.58 214.791V107.387L1386.87 53.6794L1480.16 107.387Z" fill="url(#paint22_linear_61491:161)"/>
<path d="M1386.87 375.931V268.526L1293.58 214.819L1200.29 268.526V375.931L1293.58 429.638L1386.87 375.931Z" fill="url(#paint23_linear_61491:161)"/>
</g>
<g style="mix-blend-mode:luminosity" opacity="0.4">
<path d="M1294 429.387V536.791L1387.29 590.498L1480.58 536.791V429.387L1387.29 375.679L1294 429.387Z" fill="url(#paint24_linear_61491:161)"/>
<path d="M1573.87 375.707V483.112L1480.58 536.819L1387.29 483.112V375.707L1480.58 322L1573.87 375.707Z" fill="url(#paint25_linear_61491:161)"/>
</g>
<g style="mix-blend-mode:luminosity" opacity="0.4">
<path d="M921 429.387V536.791L1014.29 590.498L1107.58 536.791V429.387L1014.29 375.679L921 429.387Z" fill="url(#paint26_linear_61491:161)"/>
<path d="M1200.87 375.707V483.112L1107.58 536.819L1014.29 483.112V375.707L1107.58 322L1200.87 375.707Z" fill="url(#paint27_linear_61491:161)"/>
<path d="M1294.16 429.387V536.791L1200.87 590.498L1107.58 536.791V429.387L1200.87 375.679L1294.16 429.387Z" fill="url(#paint28_linear_61491:161)"/>
</g>
<g style="mix-blend-mode:luminosity" opacity="0.4">
<path d="M547 429.387V536.791L640.291 590.498L733.582 536.791V429.387L640.291 375.679L547 429.387Z" fill="url(#paint29_linear_61491:161)"/>
<path d="M826.873 375.707V483.112L733.582 536.819L640.291 483.112V375.707L733.582 322L826.873 375.707Z" fill="url(#paint30_linear_61491:161)"/>
<path d="M920.163 429.387V536.791L826.873 590.498L733.582 536.791V429.387L826.873 375.679L920.163 429.387Z" fill="url(#paint31_linear_61491:161)"/>
</g>
<g style="mix-blend-mode:luminosity" opacity="0.4">
<path d="M173 429.387V536.791L266.291 590.498L359.582 536.791V429.387L266.291 375.679L173 429.387Z" fill="url(#paint32_linear_61491:161)"/>
<path d="M452.873 375.707V483.112L359.582 536.819L266.291 483.112V375.707L359.582 322L452.873 375.707Z" fill="url(#paint33_linear_61491:161)"/>
<path d="M546.163 429.387V536.791L452.873 590.498L359.582 536.791V429.387L452.873 375.679L546.163 429.387Z" fill="url(#paint34_linear_61491:161)"/>
</g>
<g style="mix-blend-mode:luminosity" opacity="0.4">
<path d="M81.8726 375.707V483.112L-11.4183 536.819L-104.709 483.112V375.707L-11.4183 322L81.8726 375.707Z" fill="url(#paint35_linear_61491:161)"/>
<path d="M175.163 429.387V536.791L81.8726 590.498L-11.4183 536.791V429.387L81.8726 375.679L175.163 429.387Z" fill="url(#paint36_linear_61491:161)"/>
</g>
</g>
<defs>
<linearGradient id="paint0_linear_61491:161" x1="81.2909" y1="370.968" x2="-11.5983" y2="212.45" gradientUnits="userSpaceOnUse">
<stop stop-color="#8257E5"/>
<stop offset="1" stop-color="#FF008E" stop-opacity="0"/>
</linearGradient>
<linearGradient id="paint1_linear_61491:161" x1="81.2909" y1="263.559" x2="-11.5983" y2="105.041" gradientUnits="userSpaceOnUse">
<stop stop-color="#8257E5"/>
<stop offset="1" stop-color="#FF008E" stop-opacity="0"/>
</linearGradient>
<linearGradient id="paint2_linear_61491:161" x1="81.2909" y1="47.671" x2="267.585" y2="160.089" gradientUnits="userSpaceOnUse">
<stop stop-color="#FF008E" stop-opacity="0"/>
<stop offset="1" stop-color="#FFCD1E"/>
</linearGradient>
<linearGradient id="paint3_linear_61491:161" x1="361.163" y1="328.237" x2="174.87" y2="215.819" gradientUnits="userSpaceOnUse">
<stop stop-color="#FF008E" stop-opacity="0"/>
<stop offset="1" stop-color="#FFCD1E"/>
</linearGradient>
<linearGradient id="paint4_linear_61491:161" x1="267.873" y1="263.559" x2="360.762" y2="105.041" gradientUnits="userSpaceOnUse">
<stop stop-color="#8257E5"/>
<stop offset="1" stop-color="#FF008E" stop-opacity="0"/>
</linearGradient>
<linearGradient id="paint5_linear_61491:161" x1="174.582" y1="219.759" x2="267.471" y2="378.277" gradientUnits="userSpaceOnUse">
<stop stop-color="#8257E5"/>
<stop offset="1" stop-color="#FF008E" stop-opacity="0"/>
</linearGradient>
<linearGradient id="paint6_linear_61491:161" x1="454.291" y1="370.968" x2="361.402" y2="212.45" gradientUnits="userSpaceOnUse">
<stop stop-color="#8257E5"/>
<stop offset="1" stop-color="#FF008E" stop-opacity="0"/>
</linearGradient>
<linearGradient id="paint7_linear_61491:161" x1="454.291" y1="263.559" x2="361.402" y2="105.041" gradientUnits="userSpaceOnUse">
<stop stop-color="#8257E5"/>
<stop offset="1" stop-color="#FF008E" stop-opacity="0"/>
</linearGradient>
<linearGradient id="paint8_linear_61491:161" x1="454.291" y1="47.671" x2="640.585" y2="160.089" gradientUnits="userSpaceOnUse">
<stop stop-color="#FF008E" stop-opacity="0"/>
<stop offset="1" stop-color="#FFCD1E"/>
</linearGradient>
<linearGradient id="paint9_linear_61491:161" x1="734.163" y1="328.237" x2="547.87" y2="215.819" gradientUnits="userSpaceOnUse">
<stop stop-color="#FF008E" stop-opacity="0"/>
<stop offset="1" stop-color="#FFCD1E"/>
</linearGradient>
<linearGradient id="paint10_linear_61491:161" x1="640.873" y1="263.559" x2="733.762" y2="105.041" gradientUnits="userSpaceOnUse">
<stop stop-color="#8257E5"/>
<stop offset="1" stop-color="#FF008E" stop-opacity="0"/>
</linearGradient>
<linearGradient id="paint11_linear_61491:161" x1="547.582" y1="219.759" x2="640.471" y2="378.277" gradientUnits="userSpaceOnUse">
<stop stop-color="#8257E5"/>
<stop offset="1" stop-color="#FF008E" stop-opacity="0"/>
</linearGradient>
<linearGradient id="paint12_linear_61491:161" x1="827.291" y1="370.968" x2="734.402" y2="212.45" gradientUnits="userSpaceOnUse">
<stop stop-color="#8257E5"/>
<stop offset="1" stop-color="#FF008E" stop-opacity="0"/>
</linearGradient>
<linearGradient id="paint13_linear_61491:161" x1="827.291" y1="263.559" x2="734.402" y2="105.041" gradientUnits="userSpaceOnUse">
<stop stop-color="#8257E5"/>
<stop offset="1" stop-color="#FF008E" stop-opacity="0"/>
</linearGradient>
<linearGradient id="paint14_linear_61491:161" x1="827.291" y1="47.671" x2="1013.58" y2="160.089" gradientUnits="userSpaceOnUse">
<stop stop-color="#FF008E" stop-opacity="0"/>
<stop offset="1" stop-color="#FFCD1E"/>
</linearGradient>
<linearGradient id="paint15_linear_61491:161" x1="1107.16" y1="328.237" x2="920.87" y2="215.819" gradientUnits="userSpaceOnUse">
<stop stop-color="#FF008E" stop-opacity="0"/>
<stop offset="1" stop-color="#FFCD1E"/>
</linearGradient>
<linearGradient id="paint16_linear_61491:161" x1="1013.87" y1="263.559" x2="1106.76" y2="105.041" gradientUnits="userSpaceOnUse">
<stop stop-color="#8257E5"/>
<stop offset="1" stop-color="#FF008E" stop-opacity="0"/>
</linearGradient>
<linearGradient id="paint17_linear_61491:161" x1="920.582" y1="219.759" x2="1013.47" y2="378.277" gradientUnits="userSpaceOnUse">
<stop stop-color="#8257E5"/>
<stop offset="1" stop-color="#FF008E" stop-opacity="0"/>
</linearGradient>
<linearGradient id="paint18_linear_61491:161" x1="1200.29" y1="370.968" x2="1107.4" y2="212.45" gradientUnits="userSpaceOnUse">
<stop stop-color="#8257E5"/>
<stop offset="1" stop-color="#FF008E" stop-opacity="0"/>
</linearGradient>
<linearGradient id="paint19_linear_61491:161" x1="1200.29" y1="263.559" x2="1107.4" y2="105.041" gradientUnits="userSpaceOnUse">
<stop stop-color="#8257E5"/>
<stop offset="1" stop-color="#FF008E" stop-opacity="0"/>
</linearGradient>
<linearGradient id="paint20_linear_61491:161" x1="1200.29" y1="47.671" x2="1386.58" y2="160.089" gradientUnits="userSpaceOnUse">
<stop stop-color="#FF008E" stop-opacity="0"/>
<stop offset="1" stop-color="#FFCD1E"/>
</linearGradient>
<linearGradient id="paint21_linear_61491:161" x1="1480.16" y1="328.237" x2="1293.87" y2="215.819" gradientUnits="userSpaceOnUse">
<stop stop-color="#FF008E" stop-opacity="0"/>
<stop offset="1" stop-color="#FFCD1E"/>
</linearGradient>
<linearGradient id="paint22_linear_61491:161" x1="1386.87" y1="263.559" x2="1479.76" y2="105.041" gradientUnits="userSpaceOnUse">
<stop stop-color="#8257E5"/>
<stop offset="1" stop-color="#FF008E" stop-opacity="0"/>
</linearGradient>
<linearGradient id="paint23_linear_61491:161" x1="1293.58" y1="219.759" x2="1386.47" y2="378.277" gradientUnits="userSpaceOnUse">
<stop stop-color="#8257E5"/>
<stop offset="1" stop-color="#FF008E" stop-opacity="0"/>
</linearGradient>
<linearGradient id="paint24_linear_61491:161" x1="1387.29" y1="585.559" x2="1294.4" y2="427.041" gradientUnits="userSpaceOnUse">
<stop stop-color="#8257E5"/>
<stop offset="1" stop-color="#FF008E" stop-opacity="0"/>
</linearGradient>
<linearGradient id="paint25_linear_61491:161" x1="1387.29" y1="369.671" x2="1573.58" y2="482.089" gradientUnits="userSpaceOnUse">
<stop stop-color="#FF008E" stop-opacity="0"/>
<stop offset="1" stop-color="#FFCD1E"/>
</linearGradient>
<linearGradient id="paint26_linear_61491:161" x1="1014.29" y1="585.559" x2="921.402" y2="427.041" gradientUnits="userSpaceOnUse">
<stop stop-color="#8257E5"/>
<stop offset="1" stop-color="#FF008E" stop-opacity="0"/>
</linearGradient>
<linearGradient id="paint27_linear_61491:161" x1="1014.29" y1="369.671" x2="1200.58" y2="482.089" gradientUnits="userSpaceOnUse">
<stop stop-color="#FF008E" stop-opacity="0"/>
<stop offset="1" stop-color="#FFCD1E"/>
</linearGradient>
<linearGradient id="paint28_linear_61491:161" x1="1200.87" y1="585.559" x2="1293.76" y2="427.041" gradientUnits="userSpaceOnUse">
<stop stop-color="#8257E5"/>
<stop offset="1" stop-color="#FF008E" stop-opacity="0"/>
</linearGradient>
<linearGradient id="paint29_linear_61491:161" x1="640.291" y1="585.559" x2="547.402" y2="427.041" gradientUnits="userSpaceOnUse">
<stop stop-color="#8257E5"/>
<stop offset="1" stop-color="#FF008E" stop-opacity="0"/>
</linearGradient>
<linearGradient id="paint30_linear_61491:161" x1="640.291" y1="369.671" x2="826.585" y2="482.089" gradientUnits="userSpaceOnUse">
<stop stop-color="#FF008E" stop-opacity="0"/>
<stop offset="1" stop-color="#FFCD1E"/>
</linearGradient>
<linearGradient id="paint31_linear_61491:161" x1="826.873" y1="585.559" x2="919.762" y2="427.041" gradientUnits="userSpaceOnUse">
<stop stop-color="#8257E5"/>
<stop offset="1" stop-color="#FF008E" stop-opacity="0"/>
</linearGradient>
<linearGradient id="paint32_linear_61491:161" x1="266.291" y1="585.559" x2="173.402" y2="427.041" gradientUnits="userSpaceOnUse">
<stop stop-color="#8257E5"/>
<stop offset="1" stop-color="#FF008E" stop-opacity="0"/>
</linearGradient>
<linearGradient id="paint33_linear_61491:161" x1="266.291" y1="369.671" x2="452.585" y2="482.089" gradientUnits="userSpaceOnUse">
<stop stop-color="#FF008E" stop-opacity="0"/>
<stop offset="1" stop-color="#FFCD1E"/>
</linearGradient>
<linearGradient id="paint34_linear_61491:161" x1="452.873" y1="585.559" x2="545.762" y2="427.041" gradientUnits="userSpaceOnUse">
<stop stop-color="#8257E5"/>
<stop offset="1" stop-color="#FF008E" stop-opacity="0"/>
</linearGradient>
<linearGradient id="paint35_linear_61491:161" x1="-104.709" y1="369.671" x2="81.5846" y2="482.089" gradientUnits="userSpaceOnUse">
<stop stop-color="#FF008E" stop-opacity="0"/>
<stop offset="1" stop-color="#FFCD1E"/>
</linearGradient>
<linearGradient id="paint36_linear_61491:161" x1="81.8726" y1="585.559" x2="174.762" y2="427.041" gradientUnits="userSpaceOnUse">
<stop stop-color="#8257E5"/>
<stop offset="1" stop-color="#FF008E" stop-opacity="0"/>
</linearGradient>
</defs>
</svg>
