<svg width="374" height="276" viewBox="0 0 374 276" fill="none" xmlns="http://www.w3.org/2000/svg">
<g style="mix-blend-mode:luminosity" opacity="0.4">
<path d="M0.000198364 60.7965V168.201L93.2911 221.908L186.582 168.201V60.7965L93.2911 7.08915L0.000198364 60.7965Z" fill="url(#paint0_linear_61385:189)"/>
<path d="M0.000198364 -46.6132V60.7911L93.2911 114.498L186.582 60.7911V-46.6132L93.2911 -100.321L0.000198364 -46.6132Z" fill="url(#paint1_linear_61385:189)"/>
<path d="M279.873 -100.293V7.11159L186.582 60.8189L93.291 7.11159V-100.293L186.582 -154L279.873 -100.293Z" fill="url(#paint2_linear_61385:189)"/>
<path d="M186.582 168.2V60.7961L279.873 7.08878L373.164 60.7961V168.2L279.873 221.908L186.582 168.2Z" fill="url(#paint3_linear_61385:189)"/>
<path d="M373.164 -46.6132V60.7911L279.873 114.498L186.582 60.7911V-46.6132L279.873 -100.321L373.164 -46.6132Z" fill="url(#paint4_linear_61385:189)"/>
<path d="M279.873 221.931V114.526L186.582 60.8189L93.291 114.526L93.291 221.931L186.582 275.638L279.873 221.931Z" fill="url(#paint5_linear_61385:189)"/>
</g>
<defs>
<linearGradient id="paint0_linear_61385:189" x1="93.2911" y1="216.968" x2="0.401906" y2="58.4504" gradientUnits="userSpaceOnUse">
<stop stop-color="#8257E5"/>
<stop offset="1" stop-color="#FF008E" stop-opacity="0"/>
</linearGradient>
<linearGradient id="paint1_linear_61385:189" x1="93.2911" y1="109.559" x2="0.401886" y2="-48.9593" gradientUnits="userSpaceOnUse">
<stop stop-color="#8257E5"/>
<stop offset="1" stop-color="#FF008E" stop-opacity="0"/>
</linearGradient>
<linearGradient id="paint2_linear_61385:189" x1="93.2911" y1="-106.329" x2="279.585" y2="6.08907" gradientUnits="userSpaceOnUse">
<stop stop-color="#FF008E" stop-opacity="0"/>
<stop offset="1" stop-color="#FFCD1E"/>
</linearGradient>
<linearGradient id="paint3_linear_61385:189" x1="373.164" y1="174.237" x2="186.87" y2="61.8186" gradientUnits="userSpaceOnUse">
<stop stop-color="#FF008E" stop-opacity="0"/>
<stop offset="1" stop-color="#FFCD1E"/>
</linearGradient>
<linearGradient id="paint4_linear_61385:189" x1="279.873" y1="109.559" x2="372.762" y2="-48.9593" gradientUnits="userSpaceOnUse">
<stop stop-color="#8257E5"/>
<stop offset="1" stop-color="#FF008E" stop-opacity="0"/>
</linearGradient>
<linearGradient id="paint5_linear_61385:189" x1="186.582" y1="65.7585" x2="279.471" y2="224.277" gradientUnits="userSpaceOnUse">
<stop stop-color="#8257E5"/>
<stop offset="1" stop-color="#FF008E" stop-opacity="0"/>
</linearGradient>
</defs>
</svg>
